<svg width="71" height="70" viewBox="0 0 71 70" fill="none" xmlns="http://www.w3.org/2000/svg">
<g clip-path="url(#clip0_203_2906)">
<path d="M47.035 22.4403C59.8165 22.2451 70.2487 32.3049 70.4961 45.0855C70.5325 46.962 70.3449 48.7884 69.9586 50.5403C69.3042 53.5067 68.9153 56.5253 68.9153 59.5631V65.4348C68.9153 66.3344 68.186 67.0637 67.2864 67.0637H61.4146C58.3769 67.0637 55.3583 67.4527 52.3919 68.107C50.6401 68.4934 48.8137 68.6809 46.9372 68.6446C34.1568 68.3973 24.0969 57.9654 24.2918 45.1841C24.482 32.7085 34.5595 22.6309 47.035 22.4403Z" fill="url(#paint0_linear_203_2906)"/>
<path d="M47.035 22.4403C59.8165 22.2451 70.2487 32.3049 70.4961 45.0855C70.5325 46.962 70.3449 48.7884 69.9586 50.5403C69.3042 53.5067 68.9153 56.5253 68.9153 59.5631V65.4348C68.9153 66.3344 68.186 67.0637 67.2864 67.0637H61.4146C58.3769 67.0637 55.3583 67.4527 52.3919 68.107C50.6401 68.4934 48.8137 68.6809 46.9372 68.6446C34.1568 68.3973 24.0969 57.9654 24.2918 45.1841C24.482 32.7085 34.5595 22.6309 47.035 22.4403Z" fill="url(#paint1_linear_203_2906)"/>
<path d="M29.0876 1.35497C13.5162 1.11708 0.806982 13.3727 0.505381 28.943C0.461221 31.2288 0.689678 33.4541 1.16054 35.5883C1.95761 39.2021 2.43147 42.8797 2.43147 46.5805V53.7339C2.43147 54.8298 3.31987 55.7183 4.41594 55.7183H11.5693C15.27 55.7183 18.9476 56.1922 22.5615 56.9893C24.6957 57.46 26.9209 57.6886 29.2067 57.6443C44.7767 57.3428 57.0323 44.634 56.795 29.0629C56.5631 13.8643 44.2861 1.58698 29.0876 1.35497Z" fill="url(#paint2_linear_203_2906)"/>
<path d="M18.5757 27.9927C17.7806 27.1478 16.6551 26.6172 15.4031 26.6172C12.995 26.6172 11.043 28.5693 11.043 30.9773C11.043 32.2292 11.5734 33.3547 12.4185 34.15L21.8239 43.5554C22.6192 44.4003 23.7447 44.9309 24.9966 44.9309C27.4046 44.9309 29.3567 42.9788 29.3567 40.5708C29.3567 39.3189 28.8261 38.1934 27.9812 37.3981L18.5757 27.9927Z" fill="url(#paint3_linear_203_2906)"/>
<path d="M15.3972 35.3354C17.8052 35.3354 19.7573 33.3833 19.7573 30.9753C19.7573 28.5673 17.8052 26.6152 15.3972 26.6152C12.9892 26.6152 11.0371 28.5673 11.0371 30.9753C11.0371 33.3833 12.9892 35.3354 15.3972 35.3354Z" fill="white"/>
<path d="M30.9048 27.9927C30.1097 27.1478 28.9842 26.6172 27.7322 26.6172C25.3241 26.6172 23.3721 28.5693 23.3721 30.9773C23.3721 32.2292 23.9025 33.3547 24.7476 34.15L34.153 43.5554C34.9483 44.4003 36.0738 44.9309 37.3257 44.9309C39.7337 44.9309 41.6858 42.9788 41.6858 40.5708C41.6858 39.3189 41.1552 38.1934 40.3103 37.3981L30.9048 27.9927Z" fill="url(#paint4_linear_203_2906)"/>
<path d="M27.7322 35.3354C30.1402 35.3354 32.0922 33.3833 32.0922 30.9753C32.0922 28.5673 30.1402 26.6152 27.7322 26.6152C25.3241 26.6152 23.3721 28.5673 23.3721 30.9753C23.3721 33.3833 25.3241 35.3354 27.7322 35.3354Z" fill="white"/>
<path d="M43.2349 27.9927C42.4398 27.1478 41.3143 26.6172 40.0622 26.6172C37.6542 26.6172 35.7021 28.5693 35.7021 30.9773C35.7021 32.2292 36.2328 33.3547 37.0777 34.15L46.4831 43.5554C47.2784 44.4003 48.4038 44.9309 49.6558 44.9309C52.0638 44.9309 54.0159 42.9788 54.0159 40.5708C54.0159 39.3189 53.4853 38.1934 52.6403 37.3981L43.2349 27.9927Z" fill="url(#paint5_linear_203_2906)"/>
<path d="M40.0622 35.3354C42.4702 35.3354 44.4223 33.3833 44.4223 30.9753C44.4223 28.5673 42.4702 26.6152 40.0622 26.6152C37.6542 26.6152 35.7021 28.5673 35.7021 30.9753C35.7021 33.3833 37.6542 35.3354 40.0622 35.3354Z" fill="white"/>
</g>
<defs>
<linearGradient id="paint0_linear_203_2906" x1="42.7306" y1="40.8805" x2="76.6537" y2="74.8036" gradientUnits="userSpaceOnUse">
<stop stop-color="#577FC8"/>
<stop offset="1" stop-color="#4080F5"/>
</linearGradient>
<linearGradient id="paint1_linear_203_2906" x1="53.8353" y1="51.9846" x2="39.4266" y2="37.5773" gradientUnits="userSpaceOnUse">
<stop stop-color="#4080F5" stop-opacity="0"/>
<stop offset="1" stop-color="#4080F5"/>
</linearGradient>
<linearGradient id="paint2_linear_203_2906" x1="18.3649" y1="24.9498" x2="54.1808" y2="60.7657" gradientUnits="userSpaceOnUse">
<stop stop-color="#845EDE"/>
<stop offset="1" stop-color="#572AC2"/>
</linearGradient>
<linearGradient id="paint3_linear_203_2906" x1="25.1021" y1="40.6772" x2="6.24456" y2="21.8202" gradientUnits="userSpaceOnUse">
<stop stop-color="#572AC2" stop-opacity="0"/>
<stop offset="1" stop-color="#572AC2"/>
</linearGradient>
<linearGradient id="paint4_linear_203_2906" x1="37.4304" y1="40.6768" x2="18.5734" y2="21.8198" gradientUnits="userSpaceOnUse">
<stop stop-color="#572AC2" stop-opacity="0"/>
<stop offset="1" stop-color="#572AC2"/>
</linearGradient>
<linearGradient id="paint5_linear_203_2906" x1="49.7604" y1="40.677" x2="30.9034" y2="21.82" gradientUnits="userSpaceOnUse">
<stop stop-color="#572AC2" stop-opacity="0"/>
<stop offset="1" stop-color="#572AC2"/>
</linearGradient>
<clipPath id="clip0_203_2906">
<rect width="70" height="70" fill="white" transform="translate(0.5)"/>
</clipPath>
</defs>
</svg>
