<svg width="32" height="48" viewBox="0 0 32 48" fill="none" xmlns="http://www.w3.org/2000/svg">
<path d="M16.8733 19.2766C17.7955 18.7069 18.4142 17.6551 18.4142 16.4519C18.4142 14.6423 17.0148 13.1753 15.2885 13.1753C13.5623 13.1753 12.1629 14.6423 12.1629 16.4519C12.1629 17.5263 12.6563 18.48 13.4184 19.0775M17.4989 24.5556C20.8635 23.5493 23.3268 20.3024 23.3268 16.4524C23.3268 11.7992 19.7284 8.02698 15.2895 8.02698C10.8504 8.02698 7.252 11.7992 7.252 16.4524C7.252 20.2332 9.62757 23.4323 12.8993 24.4991M17.4982 31.253C24.3405 30.1397 29.5775 23.9371 29.5775 16.4524C29.5775 13.0589 28.5008 9.92918 26.6863 7.4176M14.4517 1.5C6.94983 1.9543 1 8.47546 1 16.4533C1 19.8728 2.09323 23.0246 3.93309 25.5458M31 46.5V35.5675C31 34.2647 29.9925 33.2086 28.7497 33.2086C27.5069 33.2086 26.4995 34.2647 26.4995 35.5675V33.6912C26.4995 32.3885 25.492 31.3324 24.2492 31.3324C23.0065 31.3324 21.999 32.3885 21.999 33.6912C21.999 32.3885 20.9915 31.3324 19.7488 31.3324C18.506 31.3324 17.4985 32.3885 17.4985 33.6912V20.9095C17.4985 19.6067 16.4911 18.5506 15.2483 18.5506C14.0055 18.5506 12.998 19.6067 12.998 20.9095V41.908L10.2828 37.2379C9.61528 36.0898 8.19579 35.7099 7.08501 36.3822C6.01369 37.0305 5.60108 38.4355 6.13906 39.6032L9.39579 46.5M26.5749 7.10006C25.6203 8.10083 24.0725 8.10083 23.1178 7.10006C22.1632 6.09929 22.1632 4.47682 23.1178 3.47605C24.0725 2.47528 25.6203 2.47528 26.5749 3.47605C27.5296 4.47682 27.5296 6.09929 26.5749 7.10006ZM7.46001 29.4296C6.50533 30.4304 4.95759 30.4304 4.00291 29.4296C3.04823 28.4289 3.04823 26.8064 4.00291 25.8056C4.95759 24.8049 6.50533 24.8049 7.46001 25.8056C8.41469 26.8064 8.41469 28.4289 7.46001 29.4296Z" stroke="url(#paint0_linear_203_2962)" stroke-width="1.8304" stroke-miterlimit="10" stroke-linecap="round" stroke-linejoin="round"/>
<defs>
<linearGradient id="paint0_linear_203_2962" x1="1" y1="24" x2="31" y2="24" gradientUnits="userSpaceOnUse">
<stop stop-color="#572AC2"/>
<stop offset="1" stop-color="#4080F5"/>
</linearGradient>
</defs>
</svg>
