<svg width="52" height="52" viewBox="0 0 52 52" fill="none" xmlns="http://www.w3.org/2000/svg">
<path d="M15.1006 27.6914C15.5309 26.1859 17.0811 25.3075 18.6113 25.6396C23.9589 26.8003 27.8354 26.8438 33.3037 25.6582C34.8562 25.3218 36.4276 26.2254 36.8389 27.7598L38.0352 32.2246C38.4566 33.7974 37.4956 35.4149 35.9014 35.7461C28.3538 37.3141 23.1928 37.3437 15.8965 35.7764C14.2994 35.4333 13.357 33.7952 13.8057 32.2246L15.1006 27.6914ZM21.6523 30.041C20.8546 29.2433 19.5604 29.2433 18.7627 30.041C17.9651 30.8388 17.965 32.133 18.7627 32.9307C19.5604 33.7282 20.8547 33.7282 21.6523 32.9307C22.45 32.133 22.4499 30.8388 21.6523 30.041ZM33.2061 30.041C32.4083 29.2437 31.115 29.2435 30.3174 30.041C29.5198 30.8388 29.5197 32.133 30.3174 32.9307C31.115 33.7279 32.4084 33.7278 33.2061 32.9307C34.0037 32.133 34.0036 30.8388 33.2061 30.041Z" fill="url(#paint0_linear_203_3003)"/>
<path d="M10.0511 10.7228V23.7643M41.9489 10.7228V23.7643M8.6012 9.99831C7.80044 9.19803 7.80044 7.9005 8.6012 7.10022C9.40196 6.29993 10.7002 6.29993 11.501 7.10022C12.3018 7.9005 12.3018 9.19803 11.501 9.99831C10.7002 10.7986 9.40196 10.7986 8.6012 9.99831ZM40.499 9.99831C39.6982 9.19803 39.6982 7.9005 40.499 7.10022C41.2998 6.29993 42.598 6.29993 43.3988 7.10022C44.1996 7.9005 44.1996 9.19803 43.3988 9.99831C42.598 10.7986 41.2998 10.7986 40.499 9.99831ZM26 13.6209C11.094 13.6209 7.19612 30.9918 6.53711 34.6754C6.45582 35.1298 6.5055 35.5826 6.71171 35.9956C7.82304 38.2215 12.4899 45.5 26 45.5C39.5101 45.5 44.177 38.2215 45.2883 35.9956C45.4945 35.5826 45.5442 35.1298 45.4629 34.6754C44.8039 30.9918 40.906 13.6209 26 13.6209Z" stroke="url(#paint1_linear_203_3003)" stroke-width="2.16667" stroke-linecap="round" stroke-linejoin="round"/>
<defs>
<linearGradient id="paint0_linear_203_3003" x1="13.6934" y1="31.2535" x2="38.1347" y2="31.2535" gradientUnits="userSpaceOnUse">
<stop stop-color="#572AC2"/>
<stop offset="1" stop-color="#4080F5"/>
</linearGradient>
<linearGradient id="paint1_linear_203_3003" x1="6.5" y1="26" x2="45.5" y2="26" gradientUnits="userSpaceOnUse">
<stop stop-color="#572AC2"/>
<stop offset="1" stop-color="#4080F5"/>
</linearGradient>
</defs>
</svg>
