<svg width="48" height="48" viewBox="0 0 48 48" fill="none" xmlns="http://www.w3.org/2000/svg">
<path d="M1.5 15.3971V42.5294M8.31818 20.0294L8.31818 38.5588M15.1364 12.0882L15.1364 46.5M21.9545 17.3824L21.9545 41.2059M28.7727 22.6765V35.9118M46.5 12.0882C46.5 12.0882 40.6997 12.4238 38.3182 14.7353C35.9366 17.0468 35.5909 22.6765 35.5909 22.6765C35.5909 22.6765 35.2452 17.0468 32.8636 14.7353C30.4821 12.4238 24.6818 12.0882 24.6818 12.0882C24.6818 12.0882 30.4821 11.7527 32.8636 9.44118C35.2452 7.12966 35.5909 1.5 35.5909 1.5C35.5909 1.5 35.9366 7.12966 38.3182 9.44118C40.6997 11.7527 46.5 12.0882 46.5 12.0882Z" stroke="url(#paint0_linear_203_2976)" stroke-width="2.0625" stroke-linecap="round" stroke-linejoin="round"/>
<defs>
<linearGradient id="paint0_linear_203_2976" x1="1.5" y1="24" x2="46.5" y2="24" gradientUnits="userSpaceOnUse">
<stop stop-color="#572AC2"/>
<stop offset="1" stop-color="#4080F5"/>
</linearGradient>
</defs>
</svg>
