<svg width="48" height="48" viewBox="0 0 48 48" fill="none" xmlns="http://www.w3.org/2000/svg">
<path d="M24 29.9546V41.8659M24 41.8659C16.767 39.4531 12.6048 39.5821 5.35714 41.8659L8.57143 22.6754C9.28684 22.5112 9.96614 22.3684 10.619 22.2455M24 41.8659C31.233 39.4531 35.3952 39.5821 42.6429 41.8659L39.4286 22.6754C38.7994 22.531 38.1982 22.4032 37.6184 22.2908M20.1429 45.1748C21.3499 46.6041 22.0714 46.4982 24 46.4982C25.9286 46.4982 26.6501 46.6041 27.8571 45.1748M20.1429 45.1748H1.5L5.35714 24.6609H7.92857M20.1429 45.1748L20.7857 41.2043M27.8571 45.1748H46.5L42.6429 24.6609H40.0714M27.8571 45.1748L27.2143 41.2043M5.35714 12.7496L8.57143 14.073M10.5 6.79391L11.7857 8.11739M16.2857 1.5L17.5714 4.14696M24 1.5V2.16174M42.6429 12.7496L39.4286 14.073M37.5 6.79391L36.2143 8.11739M31.7143 1.5L30.4286 4.14696M18.8571 17.382C18.8571 15.3964 19.7376 13.9545 22.0714 14.0733M21.4286 18.7052C23.3571 21.3522 27.8571 20.6904 29.1429 16.72M21.4286 23.3374C23.7537 22.7116 24.6429 22.6756 25.2857 20.6904M31.0714 20.6904C31.0714 20.6904 32.7632 22.6756 31.0714 23.9991M31.0714 23.9991C29.3797 25.3226 27.8571 22.6756 27.8571 22.6756M31.0714 23.9991C35.5714 26.6461 38.7857 23.3374 37.5 18.7052M29.1434 26.6461C27.4481 27.2054 26.3801 27.1982 24.6434 26.6461C21.4292 29.293 15.6429 27.3078 17.572 21.3522M27.2143 27.3078C27.9538 29.2105 28.9345 29.8893 31.0714 30.6165C31.0714 30.6165 33.6429 32.6017 34.9286 31.94C35.5714 31.2782 34.2857 27.9696 34.2857 27.9696M16.928 25.3226C14.358 25.9843 9.21474 22.6756 11.1414 17.3817M12.4292 18.044C9.21428 15.3965 12.4284 11.4263 15.6435 14.0736M13.0728 12.7496C12.9368 10.222 15.0031 9.44148 16.9308 10.1031M16.9286 11.4264C18.8341 7.2302 20.8558 6.83208 24 8.77942M24 10.1027C24.6429 6.79391 28.5 6.79384 28.5 10.103M31.7143 28.6313C35.7386 27.3256 35.5714 26.6461 36.8571 23.9991M28.5 9.44068C31.9075 8.98377 33.485 10.1105 34.9286 14.0729M33 15.3956C36.2143 12.7486 38.7857 17.3817 36.2143 19.3657M16.9295 23.3374C15.6421 23.3374 14.3561 22.6756 14.9997 20.6904" stroke="url(#paint0_linear_203_2990)" stroke-width="1.60714" stroke-linecap="round" stroke-linejoin="round"/>
<defs>
<linearGradient id="paint0_linear_203_2990" x1="1.5" y1="24" x2="46.5" y2="24" gradientUnits="userSpaceOnUse">
<stop stop-color="#572AC2"/>
<stop offset="1" stop-color="#4080F5"/>
</linearGradient>
</defs>
</svg>
