<svg width="32" height="33" viewBox="0 0 32 33" fill="none" xmlns="http://www.w3.org/2000/svg">
<path d="M17.333 4.66602C23.2241 4.66602 27.9997 9.44164 27.9997 15.3327M17.9997 9.33268C20.9451 9.33268 23.333 11.7205 23.333 14.666" stroke="url(#paint0_linear_203_2925)" stroke-width="2" stroke-linecap="round" stroke-linejoin="round"/>
<path d="M12.211 8.28232L11.6741 7.07435C11.3231 6.28452 11.1476 5.88959 10.8851 5.58736C10.5561 5.2086 10.1273 4.92994 9.64756 4.78315C9.26477 4.66602 8.83261 4.66602 7.96828 4.66602C6.70388 4.66602 6.07167 4.66602 5.54097 4.90907C4.91583 5.19538 4.35124 5.81706 4.12631 6.46682C3.93535 7.0184 3.99004 7.58526 4.09944 8.71895C5.26388 20.7863 11.8797 27.4021 23.9471 28.5665C25.0808 28.676 25.6476 28.7307 26.1992 28.5397C26.8489 28.3148 27.4707 27.7501 27.7569 27.1251C28 26.5943 28 25.9621 28 24.6978C28 23.8333 28 23.4012 27.8829 23.0184C27.7361 22.5387 27.4575 22.1099 27.0787 21.7809C26.7764 21.5184 26.3815 21.3429 25.5916 20.9919L24.3837 20.4549C23.5283 20.0748 23.1007 19.8848 22.666 19.8435C22.2501 19.8039 21.8308 19.8623 21.4415 20.0139C21.0347 20.1723 20.6751 20.4719 19.956 21.0711C19.2401 21.6676 18.8823 21.9659 18.4449 22.1256C18.0573 22.2672 17.5448 22.3197 17.1364 22.2595C16.6759 22.1916 16.3231 22.0032 15.6177 21.6262C13.4229 20.4534 12.2127 19.2431 11.0398 17.0483C10.6629 16.3429 10.4744 15.9901 10.4065 15.5296C10.3463 15.1212 10.3988 14.6087 10.5404 14.2211C10.7002 13.7837 10.9984 13.4258 11.5949 12.71C12.1942 11.9909 12.4938 11.6314 12.6522 11.2246C12.8038 10.8353 12.8621 10.4159 12.8226 9.99999C12.7813 9.56538 12.5912 9.1377 12.211 8.28232Z" fill="url(#paint1_linear_203_2925)" stroke="url(#paint2_linear_203_2925)" stroke-width="2" stroke-linecap="round"/>
<defs>
<linearGradient id="paint0_linear_203_2925" x1="17.333" y1="9.99935" x2="27.9997" y2="9.99935" gradientUnits="userSpaceOnUse">
<stop stop-color="#4080F5"/>
<stop offset="1" stop-color="#572AC2"/>
</linearGradient>
<linearGradient id="paint1_linear_203_2925" x1="4" y1="16.666" x2="28" y2="16.666" gradientUnits="userSpaceOnUse">
<stop stop-color="#4080F5"/>
<stop offset="1" stop-color="#572AC2"/>
</linearGradient>
<linearGradient id="paint2_linear_203_2925" x1="4" y1="16.666" x2="28" y2="16.666" gradientUnits="userSpaceOnUse">
<stop stop-color="#4080F5"/>
<stop offset="1" stop-color="#572AC2"/>
</linearGradient>
</defs>
</svg>
